<?xml version="1.0" encoding="UTF-8" standalone="no"?>
<svg xmlns:rdf="http://www.w3.org/1999/02/22-rdf-syntax-ns#" xmlns="http://www.w3.org/2000/svg" xml:space="preserve" height="144.21" viewBox="0 0 174.41875 144.20715" width="174.42" version="1.1" xmlns:cc="http://creativecommons.org/ns#" xmlns:dc="http://purl.org/dc/elements/1.1/"><g transform="matrix(1.25 0 0 -1.25 -224.62 635.6)"><g transform="translate(.62927 .83902)"><path d="m253.97 506.88c-0.715-1.628-0.667-3.997 0.297-5.502 2.394-3.307 6.168-4.022 9.648-5.083 5.009-1.334 10.363-1.851 15.274-3.454 4.416-1.877 7.722-6.392 9.303-10.711 0.369 0.494 0.419 1.259 0.763 1.826 1.087 2.493 3.581 4.023 6.047 4.567-1.482-2.222-2.466-5.405-1.185-8.046 3.036 0.369 6.984 0.889 9.008-1.849v-0.1c-1.112-0.37-2.37-0.815-2.913-2.023-0.345-1.259 0.272-2.394 0.937-3.381 3.062-3.48 6.885-7.304 5.577-12.362l0.05-0.075c1.974 2.271 4.465 3.727 7.6 3.43-1.529-4.341-3.28-8.66-3.159-13.62 0.15-0.518 0.15-1.061 0.42-1.531 1.702 0.864 4.072 0.84 5.996 0.47-1.159-1.628-3.083-3.035-3.922-4.86-0.52-5.503 3.133-11.427-0.297-16.46v-0.223c1.333-2.047 2.32-4.934 1.136-7.353-1.162 0.987-2.346 2.467-3.926 1.949-0.813-0.493-1.058-1.405-1.701-2.073-2.368-3.455-5.848-6.909-10.315-6.638-0.615 0.051-1.183-0.295-1.777-0.171 0.322-2.172 0.297-4.789-0.641-6.738-0.617-1.824-1.826-3.774-3.726-4.565-0.445 0.396 0.322 0.666 0.396 1.062 0.37 1.134 0.048 2.418-0.691 3.306-0.271 0.197-0.495 0.445-0.84 0.422-0.493-2.446-2.37-4.987-4.786-5.8-0.743-0.173-1.506-0.346-2.147-0.766-0.124-0.839-0.124-1.776 0.543-2.368-0.445-0.42-1.012 0-1.432 0.172-0.074-1.135-0.369-2.417-1.358-3.134h-0.247c-0.048 0.494 0.223 0.988-0.048 1.407-0.568-0.888-1.727-1.234-2.665-1.654-0.47 0.593 1.135 1.16 0.05 1.605-1.727-0.864-5.133 0.344-5.208-2.666 0.026-0.197-0.073-0.467 0.125-0.593-0.889-0.024-1.729 0.643-2.419 1.358-0.149-0.222-0.222-0.345-0.493-0.171-0.544 0.318-1.21 0.737-1.481 1.356-0.1-0.369 0.173-0.741 0.246-1.111-0.912-0.048-1.604 0.84-2.32 1.53-2.442-1.208-6.021-0.27-7.624-3.01-0.123-0.05-0.221-0.173-0.37-0.123-0.517 0.937 0.198 1.925 0.542 2.789-1.801-0.52-3.751-0.52-5.747-0.249-3.579 1.234-7.799 3.284-11.723 1.359-1.209-0.52-2.171-1.606-3.43-1.949 1.58 2.664 1.926 6.02 4.491 8.117-2.294 0.296-4.589 0.641-6.442 1.999-2.885 2.665-6.882 2.665-10.557 3.455-4.863-0.297-9.428-1.259-14.141-1.9-0.025 0.74 0.666 1.333 1.11 1.949l1.974 2.073c-5.453-0.937-10.907-0.37-15.52 2.245-1.531 0.741-2.912 1.801-4.319 2.789 2.764-0.421 5.996-0.347 8.587 0.714 3.48 1.235 6.786 4.295 8.885 7.527-2.961-0.84-5.923-2.023-8.663-3.553 0.173 1.406 0.617 2.862 0.888 4.319 1.26 3.996 3.257 7.772 6.813 10.782-5.454 1.95-11.649 4.024-14.734 9.821 1.581-0.913 3.332-1.579 5.133-1.778-4.464 4.862-5.922 11.007-6.267 17.595-0.345 0.666-0.223 1.53-0.888 2.072-1.603 1.531-3.678 1.901-5.798 2.198-3.678 0.246-7.182-0.273-10.191-1.727 6.094 9.499 16.087 16.531 27.414 15.817l1.185-0.296c-0.297 5.526 2.836 10.413 7.353 13.373h0.222c0.198-3.651 2.146-7.427 5.626-8.884 0.418-0.097 0.788-0.271 1.183-0.345-0.098 0.545-0.518 1.111-0.69 1.702-1.752 4.714-0.666 10.094 2.468 13.82 0.197-0.518 0.369-1.159 0.542-1.727 2.541-6.146 9.796-4.467 14.213-7.872 0.346 1.95-0.271 4.244 0.765 5.971 1.481 2.493 3.653 4.984 6.096 6.762-0.617-3.332-0.075-7.033 1.603-9.846l0.543-0.518 0.049 0.05c-2.195 2.812-1.012 6.957 0.592 9.647 1.26 1.999 2.911 4.32 5.108 5.453"/><path d="m89.939 6.7227c-1.6012 1.76-2.9888 3.6088-3.3301 5.8613-0.4625 3.3925 1.5735 6.3524 4.0723 8.5137 5.0288 4.7788 12.089 4.5646 17.24 9.0371 5.83 3.9188 6.8784 10.455 6.8184 17.025-0.0312 3.8262-1.3573 7.0963-1.6973 10.799-0.2775 2.4662-0.12195 4.9629 0.1543 7.3379 1.205 2.4675 3.886 4.2248 6.3535 5.0273-0.6175-0.6775-1.2648-1.357-1.6348-2.1582 0.21625-0.15375 0.49343-0.30805 0.74218-0.1543 1.4812 1.2962 3.3298 1.6943 4.9648 2.5293-2.0675-1.9125-2.9901-4.317-3.3301-6.9707 0.0925-4.5012-0.67727-9.6545 2.959-12.707 4.9375-2.7762 10.796-6.6327 11.783-12.678 0.49125-3.6725-1.2968-6.5388-2.4668-9.625-2.8062-6.26-9.317-8.8826-15.176-10.518-7.62-2.4062-16.964-0.67875-23.902-4.8125-2.4375-1.3262-3.8895-3.6391-3.5508-6.5078zm-9.5605 5.4004c-0.83125 0.58375-1.5732 1.3862-2.0645 2.3125-1.205 3.3012-1.545 7.0938 0 10.361 0.06 0.34125 0.245 0.86508-0.15625 1.1113-3.0525-1.4188-6.262-2.5287-9.4707-3.6387-3.67-1.3875-8.2035-0.86406-11.01-4.1328-0.65-0.4625-1.6641-0.67992-1.7891-1.6387-0.80125 2.5612-0.15336 5.1562 0.52539 7.5625 1.1725 5.61 7.3707 6.9077 11.533 9.1602 5.6462 2.59 10.368 8.5734 11.199 14.68 1.0788 7.4938-2.1902 13.818-2.0977 21.098-0.0925 5.6438 3.9471 11.044 9.1309 13.078-0.0625 0.2175 0.11875 0.49148-0.15625 0.61523-4.1963-1.17-7.7722-4.4392-9.9922-8.293-3.98-5.955-3.4248-14.068-2.9023-21.316-0.09-6.2-2.5586-11.718-7.3086-16.008-4.04-3.64-8.8218-4.0698-14.436-3.8535-1.9725 0.18375-4.3487 0.46031-5.9199-0.74219-2.4075-1.1388-2.0366-3.547-1.9453-5.7695 0.0625-0.46125 0.49289-0.89297 0.46289-1.2617-2.5912 1.295-5.0901 3.5766-5.7051 6.4453-0.30875 3.0225-0.09336 5.9846 0.36914 9.0371 0.89625 4.5038 2.9909 8.4829 5.3359 12.369 2.2825 6.2012 6.4477 11.937 11.535 16.658 4.1325 5.2112 13.665 8.3845 11.629 16.346-1.1412 2.4962-2.4962 4.995-4.5938 7.0312-0.865 0.71-1.6993 1.6348-2.6543 1.791 0.955-1.39 1.9425-2.7784 2.3438-4.3809 0.64875-2.13 0.27883-4.781-1.3887-6.4473-4.285-3.6088-8.7588-7.6191-11.625-12.275-4.595-6.541-4.936-14.868-8.882-21.683-2.222-5.554-7.743-11.29-14.282-10.951-5.5838 0.155-10.458 3.3327-13.695 7.8965 1.8825-1.1712 4.1641-1.4205 6.5078-1.4805 3.8538 0.4325 7.8052 3.1464 9.2539 6.9102 1.945 7.9888 0.80024 17.273 7.834 23.164 1.6338 1.5425 3.4847 2.5926 5.4297 3.3926-0.37125 0.58625-1.1116 0.77203-1.7891 0.89453-2.5612-0.37-5.3991-0.05992-7.7129-1.1074 4.6575 4.6538 10.644 6.6598 16.596 8.5098l1.1113-0.37109c0.185 0.15625 0.24609 0.33914 0.21484 0.58789-4.965 3.8238-8.9774 9.0375-10.889 14.156 2.745-1.9412 5.6441-3.4228 8.8828-4.1641 0.18625 0.185 0.37109 0.34164 0.30859 0.58789-2.6212 3.2387-2.3439 7.6498-4.5039 11.041-1.5725 2.8675-4.4408 5.0589-7.9258 4.5039 4.2562 4.0712 11.102 4.8097 16.654 2.9609 5.4-2.2838 10.612-4.9951 16.658-5.7676 5.5825-0.8625 11.26 2.4973 16.193-0.58398 3.8562-2.3462 5.1811-6.5419 5.1211-10.891l0.1543-0.15234c0.09125 0.09125 0.0918 0.18359 0.1543 0.30859l-0.25-2.9629c-0.18375-5.705 3.3654-9.8381 3.1191-15.547-2.7762 0.8325-6.3576 0.58773-8.3613-1.4785-0.15375 0.37 0.03086 0.95562-0.43164 1.1094-1.0788-1.5425-1.882-3.3004-2.1582-5.2441-0.155 0.18625-0.49398 0.185-0.67773 0.0625-0.30875-1.0488 0.55523-2.0659 0.61523-3.0234-0.31 0.06125-0.52398-0.09164-0.67773-0.30664 0.74125-1.4188 1.6977-2.9324 3.1777-3.8574 3.0838-0.73875 5.5205 1.7878 7.1855 4.1641l-0.15625 0.125c-1.9425-1.3575-3.9759-2.7775-6.5059-2.5-0.86375 0.155-1.5114 0.71047-2.0039 1.4805l0.30859 0.2793-0.95898 2.5273 0.37109-0.21289c0.09375 0.09 0.2168 0.21219 0.2793 0.36719-0.12375 1.2338 0.30883 2.4688 0.95508 3.3926v-0.21484c0.0925-0.15375 0.12234-0.40039 0.37109-0.30664 0.8325 0.92375 1.9127 1.6002 3.0527 1.9414 2.5575 0.58625 4.8711-0.64898 7.2461-0.74023 0.52625 1.5112 0.58805 3.4854 0.2168 5.0879-1.4812 3.765-1.8807 8.3898-2.2832 12.152 1.3262-5.0888 4.6895-9.3441 5.832-14.494 0.15375-1.265 0.09195-3.1452-0.2168-4.5977-1.0475-4.0075-4.5339-7.0294-6.9414-10.516-3.545-6.1088 0.89594-12.216 3.0234-17.613 0.4025-0.865 0.43148-1.8804 0.80274-2.6816 2.0038 4.4712 0.34 9.8061 0 14.527-0.68 4.9038 2.5591 8.8528 6.4453 11.258 4.04-1.1125 7.9297-2.7757 12.523-2.3145l-1.7871-2.0059c-2.3762-4.1012-2.8689-9.19-2.1289-14.125 1.1412-8.2362 0.74024-17.368-6.3848-22.578-6.7225-6.17-17.521-3.827-22.58-12.801-0.5225-1.9762-1.3849-3.8562-1.2637-6.0137zm61.814 13.324c-2.0988 0.83125-3.3342 3.0848-3.918 5.0586-0.28 3.27-1.1742 6.29-1.6992 9.4688-0.7375 4.595-4.7495 7.7734-7.832 11.381-2.87 3.2062-4.3188 7.0023-4.9062 11.104 0.24625 3.6712 1.4814 7.2182 4.5977 9.3457-0.18625-1.5112 0.49101-2.838 1.4785-3.918 2.3462-1.635 5.06-2.3121 7.25-4.3184 0.18625 0.37125 0 0.80383 0 1.2051-0.9225 2.59-3.7962 3.1462-6.0762 3.7637-0.71 0.2475-1.5435 0.58352-1.6035 1.4785-0.52501 1.05 0.6782 2.0679-0.1543 2.9004-2.22-0.36875-3.8854-2.7128-5.1191-4.2266l1.0469 2.6523-0.30664 0.31055c-1.73-0.215-3.1789-1.1116-4.7226-1.7891 0.3725 0.3675 0.74078 0.73812 0.86328 1.2031-0.21375 0.09125-0.39828 0.39914-0.73828 0.27539-3.175-0.525-5.7376-2.8352-7.9863-5.3027 0.615 1.5412 2.3106 2.6491 3.4844 3.9766 0.03 0.2775-0.0305 0.52594-0.31054 0.58594-5.2738-0.955-9.5324 1.9132-14.496 2.377l4.8106 0.37109c-0.80125 1.0788-2.219 1.108-2.959 2.3105-1.9425 4.0088-2.8394 8.5158-3.6406 13.02-0.15375 2.1588-1.8515 4.0403-0.80273 6.3516 1.6962 2.8688 3.365 5.7048 4.8125 8.666 2.93 4.9975 3.6404 11.477 2.8066 17.184-2.3425 6.7538-9.9317 6.5388-15.605 7.0938-0.09375-0.18625 0.15359-0.21555 0.21484-0.37305 5.3975-1.2938 12.739-2.4352 14.064-9.0976 0.6175-6.4762-1.6961-11.997-5.1836-16.869 1.08 4.3475 2.3145 9.3744 0.95703 14.002-0.74125 2.9288-3.9164 5.0897-6.8164 5.3984-7.71 0.55375-14.712-2.007-21.375-4.6582 1.08 0.09 2.1927 0.49328 3.2402 0.86328 6.385 1.6338 14.249 3.6703 20.08-0.64843 3.8838-3.3612 4.1619-8.2656 3.3281-13.172-0.27625-3.6987-2.9915-6.7233-2.8027-10.238l-1.1133 2.0039c-3.67 4.8125 1.1438 10.425-1.2637 15.639-2.4375 6.075-9.6557 2.5918-14.221 2.498-8.8212-0.52375-17.335 1.0505-24.645 4.9043 6.5088-1.3875 13.202-0.0917 18.414 3.1758 4.1012 3.1788 8.2974 6.107 13.326 6.9395 0.89625 0.27875 1.9436 0.0968 2.7461 0.46679 0.09125 0.18375-0.09484 0.30719-0.21484 0.42969-3.21 0.21625-6.1409 2.1282-7.9922 4.5332 0.64875-0.43125 1.3902-0.80203 2.2227-0.83203 6.7238-1.665 11.535 4.0707 18.289 2.1582 0.7725 0 1.6339-1.2929 2.2226-0.36914-0.64875 0.805-1.2937 1.7266-1.4824 2.6504 2.2838-2.3112 5.9517-1.5083 8.5742-2.957 0.18625-1.39-1.5094-0.37219-2.002-0.89844l0.0898-0.21289c-0.27625 0.03-0.58523 0.24609-0.67773 0.37109-0.15375 0.0288-0.34039 0.27609-0.52539 0.0898 0.80124-1.3262 2.6215-2.188 3.1152-3.6367l0.21875 0.42968c-0.55625 2.22 0.4607 4.2245 2.0644 5.6445-0.0312-0.70875-0.5557-1.6657 0.1543-2.2207 0.80125 0.555 0.77102 1.82 1.791 2.375 0.06-0.71-0.21726-1.6364 0.52149-2.0039 0.4325 0.24375 0.001 0.58382 0.125 0.95507 0.33875 1.0488 1.2038 2.3448 2.375 2.5898 0-0.49125 0.27859-0.89367 0.37109-1.3262 1.1425-1.6937 3.1447-1.9746 5.1172-1.9434 1.5112 0.125 2.2547-1.4493 2.9609-2.4356l0.21679 0.2168c0.18626 0.525-0.33718 0.76867-0.36718 1.2012-1.3888 0.24625-0.12539 1.6976-0.52539 2.0664 0.555-0.33875 1.1403-0.77047 1.5703-1.2617 0.31-0.21625-0.0907-0.71219 0.37305-0.89844 0.83125 0.0937 0.70953 1.1123 0.95703 1.7285 0.4925-1.0162 1.0466-2.4981 0.27539-3.5781 0.67875-0.8625 0.98547 0.55664 1.5742 0.61914-1.1125-2.2225 1.5412-3.9794 0-6.0781 0.3075-0.61625 1.0473-0.55507 1.4785-1.0488 0.24875-0.4 0.43555-0.92422 0.2793-1.3867-0.46375-0.71-1.2971-1.5735-1.9746-1.6348 0.0913 0.61625 0.0913 1.0803 0 1.6953l0.74023 0.37305c0.155 0.1525 0.12321 0.36828-0.0918 0.51953-3.3938-0.3975-7.0315-0.3064-10.271 0.52735-0.92625 0.55375-2.2201 0.46289-3.3301 0.36914-0.92624-0.74-1.6376-1.6643-2.2226-2.5918-2.8688-3.915-2.6535-9.6836-1.6348-14.371 0.89375-4.2875 0.33969-9.2227 3.1172-12.74 0.98625-0.245 1.7866 0.43148 2.6504 0.67774 0.0325-2.035 0.70906-3.8241 1.9141-5.2754l0.15235 0.24805c-1.11 1.79-1.6045 4.4435-0.73828 6.5098 0.12375-1.2938 0.00023-2.6512 0.67773-3.7012 0.18625-0.09375 0.18609 0.1543 0.27734 0.2168-0.03 3.6688 0.18508 7.5868 3.4863 9.5605 1.295 0.0312 2.5905 0.58609 3.793 0.27734-0.495-0.1525-1.2312-0.18593-1.3574-0.80468 0.0937-0.27625 0.39969-0.0273 0.52344-0.21485 3.7025 1.8512 8.3303 0.58594 11.32-1.8516v-0.24414c-0.33875-0.18625-0.61383 0.2143-1.0176 0.0918-0.4-1.14 1.5723-0.77141 1.6973-2.0039 1.08 0.03125 0.00008 1.5409 1.0488 1.7871-0.15499 0.12625-0.37093 0.0312-0.52343 0.0625-0.0637 0.185 0.0898 0.30664 0.15234 0.43164 1.4812 0.43125 2.4991 2.4678 4.2891 1.7266 0.43125-0.585 0.98703-1.1103 0.95703-1.8516-0.27875 0.125-0.71273 0.0646-0.80273-0.24414l0.49414-0.58789c1.1088-0.0613 0.55508-1.4495 0.98633-2.127-0.37 0.21625-0.86438 0.27875-1.2656 0.125 0.30875-0.6175 1.4805-0.52367 1.4805-1.4824 0.185-0.06125 0.33664-0.18125 0.52539 0 0.49375-0.5225 0.74024-1.1721 0.74024-1.9121-0.2775-1.4488-0.31156-3.2405-2.0078-3.918-0.9525 1.4812-2.5885 1.9134-3.791 3.1172 0.1225 0.555-0.12289 0.98547-0.43164 1.3867-0.34125 0.61625-1.2949 0.21539-1.4199 0.58789-0.3375 0.55625-1.081 0.18234-1.541 0.08984-0.525-0.3075-1.1438-0.83102-1.1113-1.4785-0.12375 0.1525-0.30843 0.24609-0.52343 0.21484-1.6962-1.2612-3.7333-2.0361-5.7695-2.6523-0.37125-0.21625-0.95523-0.58758-0.80273-1.1113 2.4375-2.0038 5.5237-0.89383 8.5762-0.98633 0.555 0.0925 0.77063 0.58625 1.2656 0 1.6638 0.1225 3.4218-0.52375 4.873-0.0625-1.11-1.6962-2.8689-3.1152-4.5039-4.2227-0.7725-0.89625-3.023-0.49711-2.5293-2.2246-2.1588-0.6475-4.8752-0.39875-6.9414 0.3125-0.55375-0.2175-1.2935 1.3868-1.416 0.06055-0.71125-0.03-1.2355 0.12266-1.6992-0.27734 0.18625-0.43375 0.61899-0.86328 1.0215-1.0508 0.245 0.0925 0.12109 0.33914 0.15234 0.52539 2.6212 0 5.2122-0.98859 7.7734-0.30859v-0.2168c0.185-0.4625-0.37094-0.46164-0.64844-0.43164-0.83125-0.8925 0.58633-1.357 0.95508-2.0957 0.18375-1.42-0.92641-2.6545-1.9414-3.5508-1.885-2.2188-3.9813-4.1628-5.9238-6.4453v-0.27734c0.46375-1.1388 1.7898-0.92438 2.6836-1.0469-0.39875 0.5875-1.2334 0.67938-1.8496 1.0469 1.355 2.005 3.4216 3.5498 5.2441 5.0898 1.3862 1.4813 4.0994 2.8691 3.3281 5.3379-0.06 0.95625-0.89211 1.2323-1.6934 1.416 0.8925 0.155 0.0313 1.4826 1.0488 1.3926 0.3375 0.24375 0.67453 0.58367 0.64453 1.0449 3.5475 0.5575 5.9537 4.1348 8.6074 6.5098 0.98625 1.6338 1.2045 3.7938 0.86329 5.7676-1.7275 1.6338-1.4212 4.0699-2.3438 6.0137-0.55375 1.1738-1.7584 1.6341-2.8984 1.8516l-0.4336 2.0664c-0.21375 0.71125-0.80148 1.3564-0.83398 2.0664 1.1738 1.665 1.7288 3.8243 3.6426 4.9043 4.7175 0.46125 8.9755-1.4518 12.061-5.0606 2.4375-2.065 3.854-7.2449 7.834-5.7637 0.83125 0.36875 1.3871 1.2314 1.7246 2.0039 0.435-1.9762 0.00094-3.9166-1.6328-5.1816-0.37-0.33875-1.5444 0.15281-1.2031-0.74219 1.7562-2.3725 2.095-5.4287 2.3125-8.3574 0.2175-5.7675-4.6563-13.263 1.3262-17.551-1.6025-0.15375-3.0207 0.80133-4.502 0.89258-1.9438-5.6438-2.9926-13.726 1.3262-18.6-1.9438 0.43375-3.6079 1.574-5.0254 3.209v0.21484c-2.5612 4.0725-3.1171 9.0072-6.9121 12.586-0.12125 0.15375-0.40094 0.49305-0.58594 0.1543 1.7588-6.755 3.9469-14.126 1.2656-21.035-0.80125-2.0675-2.716-3.6727-4.1348-5.4902-1.5738-2.375-3.7941-4.8427-2.6816-7.9902 0.74-1.48 2.2519-1.9107 3.6406-2.2832-0.40375-0.2775-0.89688-0.36774-1.3281-0.52148-2.0062 0.24375-3.7627-0.28047-5.4277 0.73828-0.58625 0.125-0.92477 0.98524-1.6035 0.67774-1.295-3.2075-2.0373-7.032-0.24609-10.238zm-5.748 79.846c-0.0718 0.00058-0.15148 0.0141-0.24023 0.041-0.03 0.68125-0.85938 1.0471-0.79688 1.7871 0.95375 1.945 1.7558 3.9815 3.082 5.7715 0.74 1.355 1.4491 2.7746 1.7891 4.2246-1.945-2.715-5.6135-4.814-6.3535-8.084l0.12305 4.1367c0.24625 1.665 1.668 2.8671 2.5918 4.2246 2.53 3.3925-0.61499 6.8468-2.4375 9.623-0.18624 0.0925-0.58523 0.18375-0.74023-0.0625 0.8325-0.86375 1.0181-1.974 1.1094-3.1152-0.245-1.8188-0.15321-4.1638-2.2832-4.8125-1.2012-0.27625-2.8049-1.6339-3.7012 0.21485-0.36875 0.495-0.36891 1.1426 0.37109 1.2676-0.0312-0.52375-0.0314-1.2335 0.27735-1.6973 0.40125 0.185 0.61773 0.61633 0.83398 0.95508-0.0925 2.345 3.2983 2.1926 3.2383 4.5976 0.06 0.895-0.83351 1.5734-1.541 2.0059 0.03 0.895 0.27679 1.6636 0.0605 2.6524 1.1725-0.0637 2.1277-0.65008 3.1152-1.1113 2.6525-1.5738 4.0116-4.3493 4.2266-7.248 0.46125 0.0637 0.49203 0.55453 0.67578 0.89453 2.1288 0.955 2.8391 3.329 2.8066 5.3965 1.9762-1.975 2.5938-4.6261 2.5938-7.3398 0-3.67-3.1782-6.0152-4.6582-9.0976-0.89625 0.43-1.5118 1.6017-2.5918 1.2617 0.095-0.37 0.36899-0.64758 0.58399-0.95508 1.42-1.0175 0.27812-2.808 1.2656-4.0117l-0.30664 0.30859c-0.585-0.2775-0.30898-1.1066-0.58398-1.6328h-0.2168c-0.43375 0.18625-0.40344 0.67828-0.61719 1.0195-1.3043 1.5035-0.5991-1.2235-1.6758-1.2148zm-10.539 0.62891-2.3438 6.9687c0.46 1.1113-0.18633 3.3013 1.3887 3.3301-0.80375-1.14-0.67984-2.9589-0.37109-4.2852 0.4025-2.0375 2.128-3.7949 1.4805-6.0137h-0.1543z" transform="matrix(.8 0 0 -.8 179.7 506.88)" fill="#eeb310"/><path d="m107.92 23.535-0.15235 0.36719c6.3838 4.32 14.957 10.181 15.176 18.662h0.15235c2.7762-2.8375 3.0237-7.588 1.4199-11.043-3.0525-6.6312-10.086-7.6788-16.596-7.9863zm-25.229 6.2891-0.1543 0.31055 0.95703 1.7578c3.3288 4.7188 5.796 9.7474 6.0723 15.701h0.43555c1.82-2.87 3.3005-6.1405 2.4668-9.8418-2.2825-3.9775-6.8486-4.7177-9.7773-7.9277zm65.668 26.436c-0.8025 4.2862-3.3938 7.833-4.75 11.904-0.80375 3.2088 1.4491 5.5227 2.6504 8.084h0.36914c1.175-3.2688 2.0994-6.6022 2.5332-10.148 0.21375-3.1775 0.33907-6.8786-0.67968-9.8398h-0.12305zm-57.25 14.436-0.05859 0.2793 1.9141 2.2188h0.24414c-0.095-1.11-1.2359-1.728-2.0996-2.498zm-5.0879 0.52539c-0.46125 0.185-0.92688 0.42883-1.2656 0.86133-0.67875 1.1712-0.30875 2.8367 0.0625 4.0117h1.6348c-0.43125 0.24625-1.0792 0.12164-1.4805 0.36914-0.03125 0.4325 0.46219 0.21609 0.67969 0.37109l-0.21875 0.21484c0.89625 0.74125 2.1622-0.1225 3.2422 0.15625-0.71125 0.43125-1.6362 0.39774-2.4375 0.58398l0.06055 0.2168c1.1425 0.27625 2.3762-0.37 3.5762-0.125-0.7375 0.34125-1.6343 0.31039-2.373 0.58789v0.21484c1.665-0.09375 3.4529-0.40094 5.1816-0.58594 0.09125-0.495-0.55523-0.24789-0.74024-0.52539 0.155-0.7075-0.67758-0.30828-0.89258-0.73828 0.15375-0.18625 0.42914-0.0943 0.58789-0.2168-0.5575-0.95875-1.7625-1.1096-2.5938-1.7871 1.3862-0.0325 2.5596 0.95508 4.0684 0.83008v-0.30664c-2.1888-1.7912-4.438-3.4866-7.0918-4.1328zm27.408 0.31641c-0.62066-0.01117-1.2444 0.03703-1.8691 0.17578v0.24805c4.0712 0.46125 7.9253 1.4788 11.383 3.3926-1.4812 0.03125-2.9626-0.43359-4.5664-0.37109l-0.0918 0.37109c2.6525 0.76875 5.3059 1.8183 7.7734 3.1758 1.0175 0.55375 1.9116 1.3878 2.9629 1.8516 0.5525-0.65-0.095-1.3877 0-2.1289-0.18875-0.18625-0.4975-0.46219-0.375-0.67969 0.5875 0.06375 1.1462 0.18539 1.7012 0.30664 0.8925-0.09 1.7256 1.6712 2.4668 0.21875 0.8 0.245 1.4482-0.33898 2.0644-0.83398 0.0613-0.83125-1.1103-0.67562-1.6328-1.0156 0.24625-0.125 0.52203-0.09305 0.73828-0.31055-0.33875-0.955-1.4189-1.3557-2.0664-2.127-0.4925-0.09125-0.24664 0.52523-0.52539 0.74023-4.2562-0.4625-8.3259-1.357-12.43-2.1582-1.8272-0.255-3.6712-0.82195-5.5332-0.85547zm-20.16 0.85547c0.1225 0.4925 0.49398 0.98492 0.80274 1.2637 0.15625-0.095 0.0618-0.24859 0.0918-0.37109-0.12375-0.46125-0.46328-0.76883-0.89453-0.89258zm1.2656 0.89258c-0.03 0.24625-0.03016 0.61859 0.27734 0.58984 0.15375-0.065 0.0618-0.2175 0.0918-0.3125-0.03-0.1225-0.18539-0.33859-0.36914-0.27734zm63.293 0.1543c-1.3575 2.4062-3.7927 4.1323-5.5527 6.416-2.8988 3.6712-1.0188 9.0374-1.0488 13.326 0.0925 1.665-0.67454 3.0838-0.73829 4.5938 2.4038-1.57 4.4698-3.5137 6.291-5.8262 3.0525-3.5488 2.3449-9.0406 1.3262-13.203-0.30625-1.6662-0.64609-3.6404-0.27734-5.3066zm-49.012 2.8066c-2.19 1.2038-4.012 3.3934-5.707 5.3359-0.1225-0.1225-0.0625-0.30969-0.0625-0.46094-0.15375-0.37 0.00015-0.92383-0.3086-1.1738-0.8325 4.6288-1.262 9.4414-2.2207 14.066-0.5525 2.655 0.49461 4.9964 1.9434 7.0352 3.6412 4.255 6.5394 8.8802 6.0469 14.865 0.21375-0.0937 0.21359-0.37148 0.30859-0.58398 0.0613-2.9012 0.58578-5.6163 0.89453-8.4551 0.615 3.9488-0.37078 7.7734-0.95703 11.475-0.43125 3.1462-0.52586 6.3834-1.9434 9.1309-2.0062 3.24-5.9836 4.1944-9.7773 3.4531-2.3738-0.925-5.4913-0.73843-8.1426-0.42968 0.0625 0.18625-0.09445 0.42968 0.1543 0.52343l0.0918-0.0937c4.75-0.98625 8.6055 1.7894 13.324 1.3594 3.61-0.52375 5.1819-4.533 5.9844-7.4043 2.375-4.4712 1.5426-10.271 2.1602-15.482 0.37125 0.74125 0.12414 1.818 0.49414 2.5293-0.0325-3.95 0.43055-7.4659 0.1543-11.412-0.8325-1.6025-2.5627-2.6235-3.334-4.2285-0.18251-0.33875-0.21594-0.86133-0.52344-1.0176-0.185 1.6062 0.61648 3.24 0.74023 4.8125-2.4988-2.2187-3.8877-5.2423-3.2402-8.666-0.1525-0.03-0.27344 0.03-0.36719 0.0625-0.74 1.1712-1.0201 2.5266-1.2051 3.9141-0.64625-2.68 0.46367-5.3652 1.3574-7.7715-0.4625-0.03125-0.89367 0.4318-1.2637 0.1543 0.925-1.3888 1.7288-2.8678 2.4375-4.3516l-1.4824-0.08789v-0.37109c1.42-2.2838 3.2084-4.3828 4.4434-6.7266zm4.7852 2.2188c-1.0383 0.05004-2.166 0.51289-3.1504 0.5918-0.43124 0.15125-0.98687 0.30508-1.2031 0.67383 2.19-0.1525 3.6693 2.0688 4.8106 3.6113-0.37 0.24625-0.95742 0.18484-1.3887 0.08984-0.27626 0.1275-0.86258 0.0018-0.83008 0.43555 1.3562 0.0925 2.653 0.33688 3.793 0.89062-0.83375 0.40375-1.8212 0.37274-2.5938 0.89648 1.205 0.03125 2.2845-0.42984 3.4883-0.15234-1.635 0.985-3.3922 1.6627-5.2734 2.0039v0.12305c3.3 0.06125 5.9228-1.6048 8.6641-2.8711 2.4388-0.77 5.1522-0.92187 7.8359-1.0469l0.67969-0.52148c0.2775-0.5875 0.77078-1.2373 0.80078-1.8535h-0.21289c-0.2475 0.43125-0.61828 0.95812-1.1133 1.2656-2.2838 0.4625-4.1637-0.89391-5.9824-2.0039-0.185 0.92375 0.83118 1.2621 1.2637 1.8496-2.1888-0.4025-3.978-2.2515-6.0117-3.2402l-0.16016 0.15625c0.31 0.40125 0.83383 0.58258 1.2051 1.0176l-0.0918 0.09375c-0.1225 0-0.18429-0.15625-0.27929-0.25-0.92375-0.1825-1.7243-0.70867-2.5293-1.2324-0.50813-0.43969-1.0977-0.55737-1.7207-0.52734zm20.539 0.0039c-0.435 0.37 0.15305 0.83312 0.0605 1.1719-0.76999 0.585-0.74171-0.92344-1.543-0.52344 0.37 0.615-0.0923 1.3559-0.15235 1.7871 0.33875 0.155 0.61438 0.52539 1.1094 0.36914 0.6775-1.605 1.6654 0.58609 2.7441 0.30859 0.0925-0.6175-0.49453-1.0162-0.89453-1.3574-0.185-0.3075 0.033-0.64508 0.21679-0.86133-0.4325-0.55625-1.0173-0.61703-1.541-0.89453zm-42.938 0.15234c-0.73875 0.125-1.695-0.0607-2.2188 0.43555 0.74 0.06 1.6325-0.0643 2.2188-0.43555zm39.297 0.37305c0.34 0.83125 0.6493 1.8779 0.31055 2.8066-0.0337 0.4-0.68055 0.42938-0.37305 0.89062l0.37305-0.08984c0.55375-0.585 1.4487-1.2657 1.1074-2.2207-0.37-0.55625-0.67797-1.233-1.418-1.3867zm5.5527 5.2402c-0.80375 1.5125-2.6519 0.43367-3.6094 1.4824 1.975-0.1225 4.0724-0.34094 6.0449-0.67969-0.77-0.58625-1.7605 0.03227-2.4355-0.80273zm-46.328 0.0625-0.21875 0.30859c-0.71 2.8062-2.2487 5.3056-2.3125 8.3594-0.895 3.3-0.98508 7.003-3.3301 9.623-2.775 2.5-6.509 2.7154-10.271 2.8066-4.72 0.28-8.3586 3.2102-12.215 5.5527-0.0925 0.215 0.12234 0.15359 0.21484 0.24609 2.8988-1.2962 5.7991-2.6513 8.9453-3.3301 4.38-1.4488 10.272 0.2175 14.283-2.3125 1.8188-1.1725 2.3105-3.1161 2.4668-5.0898 0-4.8425 0.33977-9.7152 1.6973-14.066 0.24625-0.70875 0.61523-1.5089 0.74023-2.0977zm36.703 0.37109c-0.43125 0.27875-0.52399 0.74008-0.64649 1.1113-0.4025-0.2775 0.1225-0.67953-0.15625-1.0195h-0.21484c-0.37 0.7425-1.3566 0.61688-1.7266 1.2656 1.5725-0.2775 2.3449 1.2641 3.5762 1.7578-0.525-1.0488 0.55648-1.6038 0.80273-2.2812-0.55375-0.09375-1.1723 0.09289-1.6348 0.43164-0.36875-0.43125 0.46093-0.70883 0.46093-1.1113-0.15499-0.0625-0.27468-0.1868-0.46093-0.1543zm2.5938 2.9609c-0.31 0.06125-0.34164 0.27719-0.58789 0.46094-0.95625 1.02 0.77062 1.0492 1.1094 1.6992-0.80125 0.03125-1.573-0.64984-2.5293-0.30859-0.15375 0.555 0.27805 1.1091 0.31055 1.5703-1.1438-0.36875-2.4706-0.24219-3.7031-0.36719-0.43125 0.4325 0.12429 0.83117 0.21679 1.2637-0.18625 0.21625-0.49343 0.1218-0.74218 0.2168-0.245 0.09-0.64774 0.30774-0.58399 0.64648 0.8325 0 1.5718-0.000156 2.373 0.30859 0.92875-0.24625 0.0956-1.2028 0.2168-1.6953l3.3945 0.36719c0.15125-0.4625-0.55719-0.39898-0.64844-0.74024l0.21484-0.30469c1.1425-0.40125 2.0052 0.40023 2.959 0.45898v-0.45898c-0.80125-1.0175-2.095-1.7597-2-3.1172zm-8.2012 1.0586c-0.83949-0.0048-1.5966 0.74156-2.3809 1.0391-2.345-0.28-4.3808 1.0184-5.707 2.9609-0.33876 0.2775-0.89383 0.40078-1.0176 0.80078 2.2525-0.6775 3.4535-4.1326 6.416-3.2676 1.4812 1.3875 1.7572-1.3567 3.0547-1.4805-0.12359-0.03484-0.24531-0.05205-0.36523-0.05273zm-3.1856 2.6777c-2.132 0.05648-3.6007 2.2856-5.7051 2.5547 1.5738 0.0625 3.5173-0.24703 5.0898-0.86328l0.15821-0.67969c0.275-0.61625 0.95351-0.58438 1.416-0.89062-0.33547-0.09266-0.65441-0.12916-0.95898-0.12109zm2.2832 0.48828c-0.15375 0.125-0.39953 0.0618-0.58203 0.1543-0.7425 0.30875-1.0194 1.081-1.2656 1.6973-1.2338 0.15625-2.0984 1.0496-3.0234 1.9434 0.30625-0.03 0.58578-0.24859 0.86328-0.37109 1.0188-0.43125 2.1291 0.06234 2.9629 0.37109-0.0325-1.45 0.67617-2.6512 1.0449-3.7949zm3.8516 2.7422c-0.0597 0.02443-0.11 0.15055-0.14843 0.43555 1.1725 1.9438 3.3916 2.5608 5.3379 3.2695 1.0462 0.12375 2.2201 1.0161 3.1738 0.37109 1.1425 0.52375 2.563 0.21609 4.0117 0.30859-0.645-0.2775-1.665-0.09359-2.375-0.46484-0.6175 0.18625-1.572-0.06195-2.2207 0.2168-2.5275-0.67875-4.9944-1.417-7.0332-3.2383-0.3-0.13781-0.56686-0.97174-0.7461-0.89844zm16.568 2.3789c-0.27625 0.40125-0.0298 1.018-0.21484 1.4805-0.0937 0.33875-0.46148 0.36914-0.74023 0.43164 0.21625 0.74 0.89367-0.18445 1.2637 0.2168 0.0312-0.64875 0.34015-1.6989-0.3086-2.1289zm-25.754 0.43164c-2.0988 2.13-1.2023 5.4913-1.6348 8.2988 0 0.24625-0.46375 0.55398 0 0.74023l-0.36914 4.0078c-0.18625 1.5738-0.61875 3.4856-0.0625 4.9356l0.1543-0.125c0.36875-3.6688 0.68008-7.7076 1.1738-11.473l0.30468-0.3086-0.21484-0.21484 0.21484-2.4356c0.15625-1.1412 0.61985-2.3145 0.4336-3.4258zm8.666 0.1543c0.185 0.92625 1.048 1.7898 1.543 2.6523 0.52375 0.34 0.67867 1.4806 1.4824 1.2031 2.8062 0.52375 5.7042 0.83343 8.5117 0.58593 0.0625-0.155-0.0611-0.30914-0.12109-0.36914-3.7338-0.0312-7.6204 0.15266-10.088-2.7461-0.4325-0.4325-0.55813-1.4187-1.3281-1.3262zm21.035 3.3926c-0.15125 0.21876 0.0948 0.4643 0.37109 0.37305v-0.21875c0-0.215-0.24609-0.12304-0.37109-0.1543zm-7.666 0.28907c-0.38185 0.0256-0.72843 0.33578-0.9375 0.54297l0.73829 0.0625c0.21874-0.15375 0.71234-0.0902 0.58984-0.52149-0.13125-0.0694-0.26334-0.0925-0.39063-0.084zm-24.135 14.822c-0.16758 0.035-0.28219 0.17469-0.39844 0.3125 0.4325 1.48-0.24625 2.992 0 4.502 0.37 0.0312 0.27789-0.39899 0.49414-0.58399 0.83375 1.1088 1.2325 2.4363 2.2188 3.3926-0.6475-2.345-2.1588-4.3527-2.2188-6.9414l0.23-0.24c-0.37124 0 0.0607-0.30664-0.15429-0.43164-0.0694-0.0156-0.13164-0.0156-0.1875-0.004zm15.863 9.3242c-3.2704-0.11059-6.3747 1.3084-9.4766 2.0938h-1.0195c-0.95375-0.27875-2.1593-0.92781-2.373-2.0078-0.495-0.0325-0.24594 0.61648-0.52344 0.74023-0.27875-0.0312-0.3093 0.27789-0.2793 0.52539 0.30875 1.0488 1.263 2.0682 2.3418 2.3457-0.39875 0-1.0466 0.0588-1.5391-0.0625v0.15234c0.89375 0.1225 2.0654 1.05 2.8066 0.0625-0.3375-0.1525-0.83313 0.0314-1.1719-0.15234 0.525 0 0.98547-0.21735 1.4805-0.3711 1.8525-1.4488 4.0405-2.005 6.3555-2.3438 0.83125 0.0913 1.7556-0.001 2.373 0.64649 0.43 0.925 0.15391 2.0679-0.4336 2.8066 0.0625 0.15375 0.21985 0.0631 0.3711 0.0918 0.95875-0.71125 1.3276-1.8797 1.1738-3.0547 0.4 0.15625 0.49132 0.74023 0.89257 0.74023 0.18626-0.4625-0.028-1.0778-0.0918-1.4766 0.27875-0.2175 1.0176 0.2132 0.98633-0.37305l-0.46094-0.21679c-0.47453-0.0845-0.94491-0.13069-1.4121-0.14649zm-17.527 0.14649c-0.03 1.5125-1.5718 2.1609-2.4356 3.1797 0.6775 0.37125 1.1396-0.46359 1.6934-0.49609-0.52125 2.0375-2.7728 2.4074-4.0703 3.8262-0.1225 0.46375-0.73915 0.92492-0.30665 1.4199 0.67751-1.5112 2.3138-1.6044 3.5488-2.2207 2.3725-0.865 1.5402-3.5497 1.9414-5.4922-0.125-0.0625-0.18484-0.27679-0.37109-0.21679zm6.0078 4.5859c-0.0627-0.007-0.12172-0.004-0.17578 0.0117-0.2175 0.0613-0.58789 0.12414-0.58789 0.43164 0.495 0.24625 1.0174-0.0318 1.3262-0.27929-0.16031-0.0459-0.37442-0.1445-0.5625-0.16407zm8.7969 1.1836c-1.2325 1.4812-3.2993 0.71039-4.8105 0.36914-1.265 0.865-2.5312 2.1894-2.5312 3.6406h0.15625c0.4925-0.98875 1.5718-1.7276 2.5918-2.0039 1.635-0.64625 4.0686 0.00039 4.8711-2.0059h-0.27735z" transform="matrix(.8 0 0 -.8 179.7 506.88)"/><path d="m112.19 79.588c-0.18534 0.0077-0.37359 0.0257-0.56445 0.05273 1.7588 0.77125 2.4074 2.6837 3.8574 3.9199 2.3738 2.0938 4.8436-0.46359 7.4023-0.37109-1.14-0.0925-2.2195-0.40273-3.2695-0.80273-2.4574-0.95625-4.6456-2.9143-7.4258-2.7988zm4.0527 22.26c-0.35875 0.0158-0.69976 0.10859-0.91601 0.30859 0.58625-0.18625 1.2978-0.30805 1.9453-0.1543-0.2925-0.10812-0.67055-0.17008-1.0293-0.15429zm-0.1582 0.66015c-0.34734 0.003-0.66523 0.12672-0.91211 0.54297-0.03 1.3275-0.86109 2.8078-0.12109 4.0703 0.18375-0.1525 0.37148-0.58593 0.74023-0.52343 0.61625 0.37125-0.30734 0.77187-0.24609 1.2656-0.0312 0.4-0.24781 1.1699 0.46094 1.1699-0.18375 0.3725-0.24594 0.77453-0.52344 1.1133-0.27875 2.3138-0.64899 4.7482-0.80274 6.9707 0.15375 0 0.40219-0.21696 0.49219 0.0605-0.21375 0.61875-0.36773 1.2634-0.64648 1.8496 0.46375-0.0312 0.71062-0.70718 1.2656-0.58593 0.12375 0.15625 0.30719 0.24859 0.36719 0.43359-0.43125 0.525-0.33469 1.2316-0.46094 1.8516l0.46094-0.65039c0.31125-0.1225 0.83648-0.15375 0.95898 0.21875-0.40125 0.5225-0.21554 1.3552-0.15429 2.0039-0.12375-1.0175 1.4483-1.2938 0.89453-2.3125l-0.46289 0.67773c-0.33875-0.21375 0.0625-0.49203-0.0625-0.83203-0.4 0.0312-0.74008-0.0637-1.1113-0.125 0.0312-0.21625 0.12484-0.46344 0.37109-0.52344 2.8975 0.52375 2.2217-3.0873 4.0117-4.2285 0.8025-0.3075 1.48 0.18734 2.125 0.43359-1.5738-4.08 2.5498-7.9937 0.38477-11.639-0.21375 0.5425-0.60836 0.90125-1.1309 1l-0.0527 0.01v0.20507c-1.4512 0.33875-2.4401-0.83632-3.6426-1.2676-0.18625-0.1525-0.33469-0.36969-0.36719-0.58594 1.2675 0.50125 2.3962 1.3969 3.8125 1.6094l0.0664-0.17187c-1.7038-0.2225-3.0616-1.2815-4.6192-1.8652-0.37125-0.0625-0.74836-0.17921-1.0957-0.17578zm4.6914 0.0156c-0.37485-0.0173-0.72906 0.0101-1.0078 0.0645 0.65 0.46375 1.4214 0.58703 2.0664 0.95703l-0.27539 0.30664c0.1175 0.0325 0.24219 0.0524 0.36719 0.0762 0.0312-0.3675 0.0169-0.79382-0.0156-1.2051-0.36312-0.12-0.75992-0.18188-1.1348-0.19922zm-1.6543 2.2226c0.89375 0.0937 1.6675 0.55649 2.5 0.80274v0.15429c-0.985 0.03-1.79-0.37078-2.5-0.95703zm1.1894 1.1836c0.29107 0.0327 0.66914 0.33984 0.93946 0.35937l-0.43164 0.3711c0.15375 2.1588-0.24719 4.2555-0.52344 6.293-0.33875-0.77125 0-1.633 0-2.4355-0.15375-1.5138 0.83195-3.0248-0.37305-4.2285 0.0703-0.30047 0.21404-0.379 0.38867-0.35937zm-0.15429 7.1934c0.0728 0.0117 0.12304 0.0966 0.0762 0.29297v0.21484c-0.1525 0.0613-0.21805-0.0943-0.31055-0.1543-0.0758-0.19218 0.11295-0.37306 0.23438-0.35351zm0.81445 2.5117c-1.2025 0.52625-1.0155 1.8829-1.4805 2.8691-1.23 0.62-0.86312 2.0958-1.0469 3.1133 0.27875 0.155 0.65078 0.31 0.95703 0.15625 1.05-0.8625 1.4178-2.1587 1.5703-3.4824h0.21875c0.74 0.8625 0.98508 2.0924 0.95508 3.3262 1.7888 0.0325 3.9186 0.46617 5.1836-0.95508 0.30625-1.2625 1.1718-2.4976 2.373-3.1738 0.0625-0.71-0.30774-1.2967-0.83399-1.7305-0.4-0.1225-0.61507 0.21735-0.86132 0.46485 0.09 0.155 0.40039 0.24468 0.27539 0.52343-0.24625 0.24625-0.55383 0.39969-0.89258 0.42969-2.22-0.30625-4.3792-0.79976-6.418-1.541zm0.44141 0.77929c0.23156-0.00015 0.5025 0.0703 0.67187 0.0859 1.2025 0.4 2.2824 1.0801 3.6074 1.1113-1.4788 0.6475-3.487 0.21351-4.7207-0.86524 0.0169-0.2625 0.20984-0.33187 0.44141-0.33203z" transform="matrix(.8 0 0 -.8 179.7 506.88)" fill="#e31837"/><path d="m86.15 69.104c-0.19892-0.0047-0.41492 0.0014-0.65039 0.01953-1.1425 0.2775-1.85 1.2645-2.4375 2.2207 0.71-0.555 1.6114-1.4803 2.5039-1.6016 1.04-0.375 2.1966 0.16133 3.0703 0.14258-0.53922-0.21547-1.0939-0.74846-2.4863-0.78125zm22.363 3.1172c-0.72568-0.0023-1.3948 0.0918-2.127 0.0918l-0.46875 0.06836c-0.47375 0.05875-0.48641 0.02945-1.0977 0.1582l-0.38867 0.0625c-0.1475 0.06125-1.1248 0.25797-1.3086 0.35547 0.2075 0.14625 1.5835 0.03695 1.791 0.0957 0.82875 0.0325 1.6954 0.19234 2.3379 0.21484 0.71 0.06 3.3047 0.72695 3.3047 0.81445-0.17625 0.535-2.4343 4.1329-2.0918 3.6504 0.26625-0.08875 1.0636-0.92586 2.9024-2.0059 0.5625-0.475 1.3905-0.56547 2.043-0.94922 2.28-0.4425 4.5588-0.41766 6.75 0.02734 0.925 0.11375 1.4136 0.22547 2.1211 0.38672-0.3875-0.3075-0.61367-0.25891-0.73242-0.34766-1.2775-0.5375-2.9462-1.2573-4.2812-1.4648-0.67875-0.23625-0.95742-0.08086-1.6074-0.31836-0.35375 0.03125-0.68227-0.17633-0.97852-0.23633-0.2075 0.1175-0.99062-0.19031-2.2969-0.35156-0.38875-0.0575-0.87032-0.03305-1.2266-0.0918-0.59-0.03125-1.2727-0.11914-1.8965-0.11914-0.25875-0.02969-0.50615-0.04025-0.74805-0.04102zm30.488 12.836c-0.0815-0.01098-0.17195 0.0066-0.30664 0.05664-0.54 0-0.48195 0.17625-0.56445 0.3125 0.11125 0.0825 0.96437 0.31274 1.0469 0.39648 2.4388 0.88 2.9777 1.6723 4.084 2.3535 1.6175 1.08 1.7306 2.1548 2.6094 2.3535 0.19125 0.0275-1.9274-2.9195-3.7949-3.9395-0.55375-0.24625-0.99445-0.68586-1.627-0.88086-1.0369-0.34125-1.2026-0.61941-1.4473-0.65234zm-18.424 3.6094c-0.71912 0.0556-1.917 0.31406-2.2207 0.5625-0.27125-0.24625-3.2604-0.78906-4.8379 2.1484-0.18625 0.47375-0.96164 1.4033-1.3066 1.6758 0.7375-0.32 1.312-1.2951 1.3945-1.2676 0.0537-0.13625 0.5036-0.67891 1.1211-1.0977 1.5762-0.92125 1.7316-1.0376 3.9004-0.89258 0.8875-0.66375 1.9158-1.1306 2.457-1.1094-0.0822-0.03437-0.26811-0.03807-0.50782-0.01953zm16.369 2.6016c-1.695 0.06-3.6086-0.21586-4.9648 0.52539l0.46094 0.21484c1.635 0.21625 2.9628 1.2339 4.3516 2.0039h0.30664c-1.0762-0.955-2.3444-1.4175-3.4844-2.2188 1.0788-0.2775 2.2226-0.37164 3.3301-0.52539zm-19.053 6.0684c-0.0342-0.01439-0.0768-0.01367-0.13086 0.0098-0.1225 0.37-0.28601 1.1184 0.0215 1.2734 0.31-0.2475 0.16461-0.65859 0.28711-0.99609-0.0469-0.06937-0.0751-0.24393-0.17774-0.28711zm1.5039 0.81055v2.0664c0.40125-0.40125 0.64523-0.86367 0.74023-1.3887-0.095-0.30875-0.37148-0.67774-0.74023-0.67774zm1.2344 1.6992v2.0645c0.4-0.40125 0.64578-0.86297 0.73828-1.3867-0.0925-0.31125-0.36828-0.67774-0.73828-0.67774zm1.2188 1.25s0.48586 2.5062 0.0996 3.5c0.74875-0.14625 1.041-0.81609 1.1348-1.3398-0.0937-0.30875-0.86313-2.1602-1.2344-2.1602zm19.971 2.6016c-0.4925 0.18625-1.0499 0.74132-1.2324 1.2676 0.46 1.7875-0.15648 3.8245-0.89648 5.4883 2.1288-1.2925 3.1445-3.6698 3.1758-6.166-0.30625-0.31125-0.61562-0.55734-1.0469-0.58984zm-2.2227 0.002c-0.495 0.64875-0.03 1.4494 0.15625 2.0644 0.18375-0.58625 0.36875-1.6007-0.15625-2.0644zm-1.9102 0.1543c-0.8025 0.43375 0.06 1.6639 0 1.9102 0.30625-0.3975 0.30664-0.92156 0.30664-1.4766l-0.30664-0.43359zm-2.0684 0.52343-0.83007 0.3711c0.0613 0.5225 0.36843 0.89547 0.46093 1.3867 0.21625-0.55625 0.46289-1.2341 0.36914-1.7578zm-5.2734 0.95703c-0.0937 0.52625 0.24734 0.83118 0.37109 1.2637 0.33875-0.33875 0.49094-0.73743 0.52344-1.2012l-0.89453-0.0625zm2.7461 0-0.80469 0.1543c0 0.33875 0.2793 0.55328 0.2793 0.89453 0.185-0.36875 0.43164-0.67883 0.52539-1.0488zm-4.2285 0.13868c-0.70845 0.0262-1.4937 0.14648-2.2793 0.0762 0.21625 2.0662 0.86219 4.258 0.30468 6.3867 1.6675-1.82 2.5293-3.9823 2.6543-6.4473-0.21594-0.0231-0.44353-0.0243-0.67969-0.0156zm-14.496 12.293c-0.30875 0-0.1843 0.49344-0.2168 0.46094l0.2168-0.46094zm0.89648 1.5703c-0.46375 0.31125-0.55484 0.89562-0.37109 1.3906h0.1543l0.21679-1.3906zm5.9824 0.65039c-0.34 0.83125-0.77188 1.6318-1.3281 2.373-0.24625 0.77249-1.7245 1.5105-0.67578 2.373 0.615-0.12125 1.2021-0.30648 1.7246-0.67773 0.64875-1.1075 0.6493-2.8671 0.2793-4.0684zm8.3613 0.30664c-0.0938 1.265-0.55758 2.3738-1.2363 3.3926 0.49125 0.0625 1.2023 0.2489 1.6035-0.15235 0.215-1.1112 0.002-2.2527-0.36718-3.2402zm-13.326 0.52344c-0.4025 0.40125-0.2182 0.98867-0.0644 1.4824 0-0.43125 0.1257-1.0812 0.0644-1.4824zm10.979 0.86328c-0.18375 0-0.24735 0.24804-0.15234 0.31054h0.0605c0.12375-0.0625 0.0618-0.21804 0.0918-0.31054zm-9.498 0.0937c-0.12375 0.64875-0.71 1.5732-0.0625 2.127 0.585-0.55375 0.15375-1.4782 0.0625-2.127zm10.455 0.27734c-0.03 0.2475-0.2775 0.46344-0.0937 0.67969 0.095 0 0.18555 0.03 0.24805-0.0625 0.15375-0.21625-0.00055-0.52344-0.1543-0.61719zm-2.0664 0.52539c-0.4625 0.18375-0.43078 0.86313-0.83203 1.2031 0.30625-0.0312 0.64578 0.03 0.89453-0.0937-0.0325-0.36875 0.0625-0.77063-0.0625-1.1094zm1.1738 0.002-0.3125 0.88868c0.15625 0.19 0.37414 0.25125 0.61914 0.21875-0.0925-0.37-0.0929-0.82993-0.30664-1.1074zm-2.4394 0.15235c-0.46 0.27625-0.76953 0.73687-0.83203 1.2656h0.15625c0.52375-0.18625 0.77078-0.71062 0.67578-1.2656zm-1.8477 0.2168c-0.49375 0.1225-0.62008 0.67812-1.0488 0.95312 0.2125 0.065 0.36844 0.21805 0.58594 0.1543 0.5225-0.15375 0.46289-0.64492 0.46289-1.1074zm2.7852 3.9688c-1.2738-0.02-4.4452 0.2164-6.709 2.4414 0.275 0.33875-0.32132 1.1627 0.38868 1.3164 0.89375-0.76875 1.942-1.3566 3.082-1.6641 2.3575-0.70125 2.6015-0.25375 3.334-0.0312 0.185 0.15375 0.72906 0.36382 0.88281 0.58007 0.12125 0-0.35281-1.4517-0.57031-1.5742 1.9088-0.69125 0.11555-0.94461-0.4082-1.0684z" transform="matrix(.8 0 0 -.8 179.7 506.88)" fill="#fff"/></g></g></svg>
